<?xml version="1.0" standalone="no"?>
<svg xmlns:xlink="http://www.w3.org/1999/xlink" id="wave" style="transform:rotate(180deg); transition: 0.3s" viewBox="0 0 1440 100" version="1.1" xmlns="http://www.w3.org/2000/svg"><defs><linearGradient id="sw-gradient-0" x1="0" x2="0" y1="1" y2="0"><stop stop-color="rgba(255, 249, 234, 1)" offset="0%"/><stop stop-color="rgba(255, 249, 234, 1)" offset="100%"/></linearGradient></defs><path style="transform:translate(0, 0px); opacity:1" fill="url(#sw-gradient-0)" d="M0,60L26.7,51.7C53.3,43,107,27,160,30C213.3,33,267,57,320,60C373.3,63,427,47,480,40C533.3,33,587,37,640,45C693.3,53,747,67,800,60C853.3,53,907,27,960,13.3C1013.3,0,1067,0,1120,8.3C1173.3,17,1227,33,1280,35C1333.3,37,1387,23,1440,23.3C1493.3,23,1547,37,1600,35C1653.3,33,1707,17,1760,18.3C1813.3,20,1867,40,1920,45C1973.3,50,2027,40,2080,31.7C2133.3,23,2187,17,2240,21.7C2293.3,27,2347,43,2400,50C2453.3,57,2507,53,2560,50C2613.3,47,2667,43,2720,45C2773.3,47,2827,53,2880,46.7C2933.3,40,2987,20,3040,13.3C3093.3,7,3147,13,3200,18.3C3253.3,23,3307,27,3360,28.3C3413.3,30,3467,30,3520,38.3C3573.3,47,3627,63,3680,61.7C3733.3,60,3787,40,3813,30L3840,20L3840,100L3813.3,100C3786.7,100,3733,100,3680,100C3626.7,100,3573,100,3520,100C3466.7,100,3413,100,3360,100C3306.7,100,3253,100,3200,100C3146.7,100,3093,100,3040,100C2986.7,100,2933,100,2880,100C2826.7,100,2773,100,2720,100C2666.7,100,2613,100,2560,100C2506.7,100,2453,100,2400,100C2346.7,100,2293,100,2240,100C2186.7,100,2133,100,2080,100C2026.7,100,1973,100,1920,100C1866.7,100,1813,100,1760,100C1706.7,100,1653,100,1600,100C1546.7,100,1493,100,1440,100C1386.7,100,1333,100,1280,100C1226.7,100,1173,100,1120,100C1066.7,100,1013,100,960,100C906.7,100,853,100,800,100C746.7,100,693,100,640,100C586.7,100,533,100,480,100C426.7,100,373,100,320,100C266.7,100,213,100,160,100C106.7,100,53,100,27,100L0,100Z"/></svg>